Patient4_TMGait_0pt4_03_left_02_EMG.mot
version=1
nRows=30
nColumns=33
inDegrees=no
endheader
time	1LAddLong	2LGlutMax	3LGlutMed	4LIliopsoas	5LSemiMemb	6LBicFemLong	7LRecFem	8LVastMed	9LVastLat	10LGasMed	11LTibAnt	12lTibPost	13LPeroneusLong	14LSol	15LExtDigLong	16LFlexDigLong	17RAddLong	18RGlutMax	19RGlutMed	20RIliopsoas	21RSemiMemb	22RBicFemLong	23RRecFem	24RVastMed	25RVastLat	26RGasMed	27RTibAnt	28RTibPost	29RPeroneusLong	30RSol	31RExtDigLong	32RFlexDigLong
3.075	-0.002899	-0.058136	-0.25269	0.005493	0.005341	0.026398	0.074005	0.001373	-0.020142	-0.26138	-0.017853	0.013123	0.16968	-0.3804	-0.002899	-0.028076	0.074921	-0.099335	0.52765	0.085144	-0.3244	-0.23483	0.15472	0.2803	0.12878	0.000153	0.030975	0.003662	0.2327	-0.056	0.001068	-0.006561
3.076	0.003204	-0.046692	-0.25391	0.016022	0.001984	0.006256	0.037842	0.003967	-0.033722	-0.97961	-0.002289	-0.008545	0.014038	-0.39688	-0.016632	-0.016785	0.14984	-0.010834	0.64835	0.024719	-0.39719	-0.32867	0.27512	0.47257	0.010986	0.000458	0.051727	0.003967	-0.45944	-0.057373	-0.006104	-0.005798
3.077	-0.001984	-0.020599	-0.2533	0.021667	0.006561	0.000458	0.03006	-0.001526	-0.023041	-0.94605	0.01297	0.0177	-0.068512	-0.22675	-0.045319	-0.012512	0.15076	0.070953	0.47699	-0.032196	-0.63767	-0.18585	0.052185	0.30075	-0.081787	-0.004578	0.039215	0.005951	-0.29587	-0.03418	-0.00061	-0.002747
3.078	0.006256	0.028381	-0.27435	0.011902	0.019073	0.027618	0.041962	0.010986	-0.03891	-0.70602	0.010529	-0.00351	-0.073547	-0.18555	-0.037537	-0.021515	0.052643	0.20203	0.17364	0.029602	-0.7161	0.052948	-0.24033	0.14175	0.13245	0.003052	-0.02533	0.001984	0.13336	0.007019	-0.001373	-0.004272
3.079	-0.004883	-0.007782	-0.24719	0.009918	0.009613	0.11444	0.049286	0.000458	-0.033264	-0.32577	0.011139	-0.005951	-0.050812	-0.17609	-0.02655	-0.023956	-0.097504	0.26825	0.016937	0.088959	-0.12665	0.15625	-0.31082	0.042267	0.44083	0.002747	-0.034485	0.005951	0.31158	-0.027161	-0.001831	-0.00412
3.08	-0.006409	0.01297	-0.20691	-0.010529	0.007629	0.10864	0.039825	0.007324	-0.03479	0.21393	-0.000763	0.007629	-0.000458	-0.0737	0.000916	-0.02533	-0.15503	0.2449	0.21866	0.14664	0.15884	0.082397	-0.19287	-0.065613	0.37888	0.002899	0.062408	0.005035	-0.35202	-0.037842	-0.006866	-0.00885
3.081	0	0.036774	-0.20615	-0.008087	-0.003357	0.079803	0.040131	0.006409	-0.038147	-0.18249	0.010071	-0.002289	-0.004425	-0.007324	-0.007935	-0.018158	-0.17471	0.2327	0.76065	0.055084	0.34912	0.016327	-0.45212	-0.080414	0.34271	0.004883	0.053406	0.004578	-0.3624	-0.001373	-0.003052	-0.014954
3.082	-0.000916	0.040741	-0.15228	-0.004883	-0.007629	0.07843	0.032196	0.004883	-0.024872	-0.12711	0.011292	-0.004883	-0.046539	0.047913	-0.001831	-0.028992	-0.14557	0.18249	0.59021	-0.065155	0.4744	-0.069275	-0.57526	-0.21301	0.12772	0.00412	-0.00061	-0.002136	-0.043793	-0.075989	0.000763	-0.021362
3.083	0.001068	0.046082	-0.14587	-0.00946	-0.00885	0.048523	0.014191	0.00412	-0.012817	0.2565	0.016174	0.003204	-0.070496	0.024719	0.002899	-0.030823	-0.069275	0.2002	0.48706	-0.11093	0.17868	-0.18585	-0.41351	-0.64407	-0.033264	0.001678	0.020447	0.003967	-0.10605	-0.088196	-0.000916	-0.016022
3.084	-0.000763	0.063782	-0.14435	-0.003052	0.005188	0.0737	-0.004578	0.005646	0.001526	0.43366	0.009155	0.005493	-0.095062	0.017853	0.007019	-0.81253	-0.048218	0.1738	0.53619	-0.067596	-0.048065	-0.17487	-0.20264	-0.24963	-0.017242	0.002899	0.039825	0.004425	-0.13382	-0.071869	-0.003052	-0.011597
3.085	-0.001526	0.04715	-0.16357	0.001221	-0.005798	0.10025	-0.007172	0.003662	0.006866	0.32181	0.005188	0.000458	-0.099792	0.059814	0.013428	0.56442	-0.028229	0.15457	0.32333	0.054626	-0.2301	-0.14557	-0.16266	-0.057831	-0.057373	-0.000916	0.038757	0.002899	-0.054779	-0.06485	-0.002289	-0.017242
3.086	0.003967	0.061951	-0.13748	0.007782	-0.012054	0.057526	0.006866	0.005951	0.008087	-0.20554	0.007019	-0.020752	0.019073	0.039673	0.019379	0.19333	-0.017242	0.17654	0.24139	0.053406	-0.23499	-0.1001	0.059509	-0.057526	0.16373	-0.002136	-0.006104	0.003204	-0.001526	-0.037231	0.002899	-0.013275
3.087	-0.065613	0.096283	-0.065613	0.010376	-0.002747	0.024719	0.002441	0.004272	0.018921	-0.66009	-0.009766	0.061493	0.10422	0.020752	0.02182	-0.088196	-0.007935	0.10834	0.36774	0.010986	0.072327	-0.10788	0.27023	-0.018311	0.22369	0	0.008392	0.004272	-0.027618	-0.060883	-0.005341	-0.011292
3.088	0.077209	0.099945	-0.040741	0.009308	-0.005646	0.005341	-0.005646	0.001984	0.018158	-1.0014	0.000916	-0.017395	0.12253	-0.038757	-0.008545	-0.28244	0.027161	0.068665	0.7254	-0.11032	0.25101	-0.159	0.30685	0.027008	0.16571	0.004425	0.011444	0.000458	-0.031281	-0.028076	-0.001373	-0.010223
3.089	-0.02533	0.11246	-0.024414	0.021667	0.00885	-0.050201	-0.010376	0.004272	0.022736	-0.59723	-0.005188	-0.017395	0.058899	0.058594	0.003204	0.58609	0.042267	-0.015717	0.31067	-0.11734	0.30731	-0.16403	0.32318	0.010376	0.043945	0.004425	0.030212	0.00061	-0.046844	-0.057373	-0.000458	-0.012054
3.09	-0.010223	0.103	-0.082703	0.017242	0.001678	-0.036316	-0.0354	0.001221	0.016022	0.083618	0.003967	-0.050201	-0.02533	0.36545	-0.018005	-0.013428	0.096741	-0.059052	-0.11459	-0.13107	0.11551	-0.095673	0.50888	-0.16022	-0.1651	-0.000153	0.039063	-0.00412	-0.060272	-0.067596	-0.005646	-0.006256
3.091	-0.004578	0.079498	-0.079193	0.006104	-0.00885	-0.017853	-0.035706	0.003204	0.025177	0.31052	0.001984	0.1416	-0.04776	0.22888	-0.055542	-0.21423	0.12283	-0.042114	0.045166	-0.13168	-0.038452	0.000763	0.46845	-0.15427	0.090637	-0.001068	0.023804	-0.007019	-0.072784	-0.066528	-0.005493	-0.010834
3.092	-0.00351	0.088348	-0.036469	-0.001068	-0.002594	-0.024872	-0.027313	0.009918	0.011749	0.2356	0.002899	0.073395	-0.029755	-0.03006	-0.034027	0.20538	0.088348	-0.009308	0.17075	-0.005035	-0.092621	0.053101	0.25146	-0.18387	0.60715	0.003967	0.024109	-0.006561	-0.049286	-0.058746	-0.002594	-0.00061
3.093	0	0.12207	0.066223	-0.017242	-0.008392	-0.050964	-0.035095	0.006409	0.005951	0.11749	-0.010834	0.022888	0.012207	0.21729	0.004578	0.048676	0.033112	-0.039368	0.20004	0.055389	0.044708	0.032959	-0.12833	-0.19928	0.33844	0.005035	0.071106	-0.001373	-0.064697	-0.077362	-0.002136	-0.01297
3.094	0.005798	0.11902	0.13748	0.004425	-0.004578	-0.090485	-0.03006	0.004578	-0.000763	0.23743	-0.001678	-0.007935	0.015259	0.067291	-0.00412	-0.21118	-0.023041	-0.10315	0.66116	0.046997	0.19547	0.074768	-0.65597	-0.090179	-0.17395	0.000916	0.081482	-0.000916	-0.04303	-0.075684	-0.006104	-0.0177
3.095	0.000458	0.12741	0.15991	-0.004578	0.003052	-0.099945	-0.059814	0.006256	0.012207	0.11444	0.000763	-0.001221	-0.007019	-0.15595	-0.007019	-0.11856	-0.068817	-0.070038	0.78491	-0.13153	0.45822	0.082703	-0.56381	-0.16068	-0.2446	0.003662	0.016479	-0.005188	0.009003	-0.062561	-0.005341	-0.018463
3.096	0.002289	0.1326	0.14923	0.004425	0.037842	-0.069122	-0.047607	0.005798	0.007629	-0.17181	-0.004578	0.006866	0.026093	-0.26367	-0.039368	-0.04364	-0.069275	-0.10193	-0.22217	-0.027313	0.14877	0.16495	-0.30136	-0.23972	-0.29343	0.000153	0.00061	-0.001068	0.015106	-0.060272	-0.002594	-0.015717
3.097	0.000763	0.11185	0.17944	0.00412	0.03891	-0.021057	-0.044098	0.00351	-0.011292	-0.18875	0.000458	0.004883	-0.005493	-0.46188	-0.037079	-0.2655	-0.074158	-0.075684	-0.48798	0.005188	0.043488	0.23178	-0.15427	-0.12848	-0.3157	0.000458	0.010681	-0.000763	0.013428	-0.046997	-0.000916	-0.023956
3.098	-0.001831	0.14206	0.21194	0.021667	0.019836	0.024567	-0.04776	0.009155	-0.001373	0.17273	-0.000153	-0.018768	-0.079651	-0.30395	-0.009003	-0.008545	-0.035706	-0.063019	-0.24002	0.12283	0.4863	0.16251	-0.046692	-0.072632	-0.43137	0.00061	0.007782	0.001678	0.028076	-0.04776	0.000305	-0.021667
3.099	0.006714	0.13901	0.23926	0.014191	0.014954	-0.014801	-0.058441	0.005493	0.000458	0.25482	0.010376	-0.016174	-0.075531	0.069275	-0.007629	0.090027	-0.019073	-0.075531	-0.21927	0.099335	0.26489	0.029144	0.039978	-0.12268	-0.46768	0.010529	0.019531	0.000763	0.016785	-0.045624	-0.005951	-0.027771
3.1	-0.001831	0.15396	0.25131	0.004578	0.008545	-0.01297	-0.041046	0.00473	-0.012512	-0.077667	-0.001526	-0.010834	-0.011902	0.23743	0.008545	-0.001831	0.008087	-0.06424	-0.15243	-0.046692	0.079651	-0.0177	0.058136	-0.16159	-0.033569	0.001068	0.029755	0.001831	-0.016785	-0.04303	-0.001221	-0.029755
3.101	0.005341	0.14999	0.2626	-0.016022	-0.016327	0.006409	-0.04837	0.00351	-0.016785	-0.14496	0.010834	-0.019226	-0.014648	0.079651	0.00351	0.13168	0.002899	-0.077362	-0.13931	-0.03479	0.13565	0.059662	-0.14908	0.042572	0.43503	0.00061	0.027008	0.005035	0.013428	-0.046234	0.001373	-0.030518
3.102	-0.007782	0.14572	0.2771	0.01358	-0.03067	0.00946	-0.028992	0.001526	-0.023346	0.14526	0.002899	-0.009766	-0.009918	0.12634	-0.00061	0.037079	-0.012512	-0.048828	-0.41901	-0.069733	0.39825	0.057526	-0.6102	0.089111	0.85815	-0.00061	0.006409	0.00473	-0.031433	-0.040283	-0.005188	-0.02121
3.103	-0.002136	0.15457	0.31097	0.012512	-0.031891	0.016632	-0.040283	0.002899	-0.040131	0.16892	0.007935	0.003357	-0.002594	0.099335	-0.004883	0.010986	0.047455	-0.1413	-0.38834	-0.12421	0.50369	-0.011139	-0.41443	0.075531	0.64667	0.001068	0.00946	0.00061	-0.079803	-0.034943	-0.002594	-0.013885
3.104	0.003204	0.14435	0.32349	0.009308	-0.021057	0.005951	-0.037842	0.000763	-0.029602	-0.10605	0.002747	0.003815	0.016479	0.21027	-0.011749	0.011139	0.045471	-0.25742	-0.242	-0.084076	0.46295	-0.035095	0.031433	-0.2301	0.27039	-0.000153	0.002441	0.002289	0.018158	-0.050354	-0.002899	-0.013275
